<svg width="65" height="65" viewBox="0 0 65 65" fill="none" xmlns="http://www.w3.org/2000/svg">
<path fill-rule="evenodd" clip-rule="evenodd" d="M8.51881 0H56.4812C61.1666 0 65 3.80251 65 8.44994V56.0246C65 60.6722 61.1665 64.4745 56.4812 64.4745H8.51881C3.83336 64.4745 0 60.672 0 56.0246V8.44994C0 3.80237 3.8335 0 8.51881 0ZM28.231 33.6259C29.3287 34.8124 30.8845 35.493 32.4999 35.493C34.1154 35.493 35.6713 34.8124 36.7689 33.6259L53.0107 16.063C52.6902 15.9963 52.3587 15.9602 52.0186 15.9602H12.9812C12.6411 15.9602 12.3095 15.9965 11.9888 16.063L28.231 33.6259ZM40.2715 34.631L42.4876 32.2347L55.8194 17.8184C56.4843 18.6533 56.8983 19.6955 56.8983 20.8436V43.6313C56.8983 44.7791 56.4843 45.8216 55.8194 46.6564C55.0148 47.6362 54.0614 48.1698 53.0111 48.4123C52.6902 48.4789 52.3587 48.5146 52.0186 48.5146H12.9812C12.6411 48.5146 12.3093 48.4789 11.9887 48.4123C10.8163 48.3001 9.86164 47.752 9.18037 46.6564C8.51571 45.8216 8.10147 44.7793 8.10147 43.6313V20.8436C8.10147 19.6955 8.51557 18.6533 9.18037 17.8184L22.512 32.2347L24.7282 34.631L25.8436 35.8369C27.5552 37.6873 29.9815 38.7482 32.4999 38.7482C35.0185 38.7482 37.4446 37.6871 39.1562 35.8369L40.2715 34.631Z" fill="white"/>
</svg>
