<svg width="27" height="27" viewBox="0 0 27 27" fill="none" xmlns="http://www.w3.org/2000/svg">
<path d="M15.9828 18.6769C15.5943 19.3483 15.2057 20.0194 14.8169 20.6904C13.7397 22.5456 12.658 24.3981 11.5892 26.2582C11.478 26.452 11.366 26.497 11.1589 26.4558C6.07005 25.4427 2.53045 22.5383 0.791278 17.6535C-0.64196 13.6262 -0.0956441 9.73585 2.1661 6.09849C2.20282 6.0395 2.24847 5.98592 2.30405 5.91064C2.82625 6.80429 3.33727 7.67924 3.84865 8.55381C5.12388 10.7338 6.39868 12.9139 7.67307 15.0944C7.75454 15.2347 7.82656 15.3818 7.88723 15.5317C9.14639 18.6071 12.6588 20.044 15.7178 18.7331C15.7914 18.7017 15.8649 18.6696 15.9385 18.6377L15.9828 18.6769Z" fill="#284659"/>
<path d="M12.4864 26.5992C12.8313 26.002 13.1539 25.4397 13.4805 24.8792C15.1259 22.0453 16.7719 19.2119 18.4186 16.3791C20.0121 13.6405 19.3179 10.3394 16.7551 8.48241C16.7265 8.46213 16.6995 8.43818 16.6334 8.38565C16.7462 8.37651 16.8202 8.36537 16.8943 8.36537C19.758 8.36453 22.6219 8.36322 25.486 8.36133C25.6603 8.36133 25.7536 8.39537 25.823 8.57775C27.8607 13.9253 26.2376 20.0254 21.787 23.6303C19.2011 25.7251 16.2285 26.7153 12.9001 26.6295C12.7745 26.6264 12.6509 26.6118 12.4864 26.5992Z" fill="#284659"/>
<path d="M25.3063 7.40807H24.9105C21.122 7.40807 17.3335 7.39709 13.545 7.41191C11.0092 7.42184 9.13351 8.55969 8.01593 10.8448C7.72685 11.4364 7.60309 12.1089 7.40731 12.7314C7.37763 12.6952 7.35037 12.6567 7.32615 12.6167C5.88651 10.1554 4.44528 7.69442 3.00254 5.23395C2.91266 5.08098 2.94996 4.99803 3.04572 4.88299C5.00237 2.53583 7.45622 0.9823 10.4438 0.323412C16.2901 -0.966208 22.1375 1.67733 25.0364 6.89096C25.1229 7.04635 25.2012 7.2062 25.3063 7.40807Z" fill="#284659"/>
<path d="M18.316 13.3281C18.3119 16.0871 16.0879 18.2723 13.2904 18.2669C10.6075 18.2614 8.40296 16.0124 8.41189 13.2902C8.42124 10.5313 10.6444 8.3606 13.4504 8.36769C16.1213 8.37379 18.3198 10.6153 18.316 13.3281Z" fill="#284659"/>
</svg>
