<svg width="65" height="64" viewBox="0 0 65 64" fill="none" xmlns="http://www.w3.org/2000/svg">
<path fill-rule="evenodd" clip-rule="evenodd" d="M8.40959 0H55.7571C60.3824 0 64.1667 3.75376 64.1667 8.34161V55.3063C64.1667 59.8943 60.3823 63.6479 55.7571 63.6479H8.40959C3.78422 63.6479 0 59.8942 0 55.3063V8.34161C0 3.75363 3.78435 0 8.40959 0ZM32.0803 5.7516C17.2015 5.7516 5.13314 17.7208 5.13314 32.4854C5.13314 44.2936 12.8545 54.3134 23.564 57.8504C24.9119 58.095 25.4037 57.2701 25.4037 56.5604C25.4037 55.9253 25.3806 54.245 25.3669 52.0146C17.8708 53.6297 16.2885 48.4305 16.2885 48.4305C15.0632 45.3417 13.2971 44.5198 13.2971 44.5198C10.8494 42.8623 13.4809 42.8957 13.4809 42.8957C16.1874 43.0841 17.6088 45.6502 17.6088 45.6502C20.0136 49.7356 23.918 48.5551 25.4527 47.8715C25.6978 46.1455 26.3947 44.9665 27.1637 44.2981C21.1792 43.622 14.8886 41.3308 14.8886 31.0861C14.8886 28.1675 15.9378 25.7822 17.6625 23.9134C17.3853 23.2373 16.4601 20.5193 17.9274 16.8394C17.9274 16.8394 20.1882 16.1208 25.3377 19.5773C27.4868 18.9847 29.792 18.69 32.0834 18.6778C34.3732 18.6899 36.6785 18.9847 38.8305 19.5773C43.9755 16.1208 46.2347 16.8394 46.2347 16.8394C47.7051 20.5192 46.78 23.2372 46.5043 23.9134C48.2321 25.7822 49.2735 28.1675 49.2735 31.0861C49.2735 41.3567 42.9721 43.6159 36.9694 44.2768C37.9359 45.1034 38.7983 46.7335 38.7983 49.2283C38.7983 52.8017 38.7646 55.6838 38.7646 56.5604C38.7646 57.276 39.2517 58.1087 40.6179 57.8473C51.3184 54.3043 59.0335 44.292 59.0335 32.4854C59.0335 17.7208 46.9655 5.7516 32.0803 5.7516Z" fill="white"/>
</svg>
