<svg width="32" height="31" viewBox="0 0 32 31" fill="none" xmlns="http://www.w3.org/2000/svg">
<path fill-rule="evenodd" clip-rule="evenodd" d="M15.5675 0C6.95915 0 0 7.0104 0 15.6833C0 22.616 4.45897 28.4842 10.6446 30.5614C11.4181 30.7175 11.7006 30.2239 11.7006 29.8086C11.7006 29.4451 11.6751 28.1989 11.6751 26.9003C7.34454 27.8353 6.44263 25.0304 6.44263 25.0304C5.74765 23.2131 4.71637 22.7469 4.71637 22.7469C3.29893 21.7862 4.81975 21.7862 4.81975 21.7862C6.39199 21.89 7.2176 23.3959 7.2176 23.3959C8.60906 25.7845 10.8516 25.1096 11.7536 24.6938C11.8823 23.6819 12.295 22.9801 12.7332 22.5905C9.27938 22.2271 5.64537 20.8768 5.64537 14.8526C5.64537 13.1389 6.26356 11.7369 7.24314 10.6464C7.08917 10.257 6.54711 8.6469 7.39711 6.49189C7.39711 6.49189 8.71155 6.07632 11.6752 8.10158C12.9417 7.7579 14.2536 7.58214 15.5672 7.58214C16.8808 7.58214 18.1927 7.7579 19.4592 8.10219C22.4233 6.07693 23.7378 6.4925 23.7378 6.4925C24.5887 8.64839 24.0457 10.2576 23.8918 10.647C24.8971 11.7375 25.4898 13.1395 25.4898 14.8532C25.4898 20.8774 21.8558 22.2008 18.3759 22.5911C18.9433 23.0845 19.4319 24.019 19.4319 25.4994C19.4319 27.6025 19.4064 29.2902 19.4064 29.8094C19.4064 30.225 19.6899 30.7186 20.4623 30.5626C26.648 28.4851 31.1069 22.6171 31.1069 15.6843C31.1349 7.0104 24.1502 0 15.5675 0Z" fill="#284659"/>
</svg>
