<svg width="63" height="65" viewBox="0 0 63 65" fill="none" xmlns="http://www.w3.org/2000/svg">
<path fill-rule="evenodd" clip-rule="evenodd" d="M8.25669 0H54.7433C59.2846 0 63 3.80251 63 8.44994V56.0246C63 60.6722 59.2845 64.4745 54.7433 64.4745H8.25669C3.71541 64.4745 0 60.672 0 56.0246V8.44994C0 3.80237 3.71554 0 8.25669 0ZM33.9934 52.3563C34.0994 51.8591 34.028 40.6056 34.028 39.7835C34.028 37.7448 33.9401 35.8981 34.868 34.3377C35.5492 33.192 36.8377 31.9925 38.718 31.9925C42.2872 31.9925 42.9181 34.8056 42.9181 37.9208V52.3202H51.178V35.1269C51.178 32.1018 50.1769 29.4918 48.734 27.7435C47.5008 26.2492 45.0478 24.6677 42.0779 24.6677H41.3079C38.6589 24.6677 35.8039 26.272 34.323 28.3377C33.994 28.7966 33.941 29.09 33.6779 29.1808V25.4557H25.7679V52.3379L33.9934 52.3563ZM12.538 52.3202H20.7979V25.4557H12.538V52.3202ZM16.0245 12.1668C13.5118 12.5065 11.4804 14.6689 11.8704 17.6845C12.2001 20.2344 14.4234 22.2138 17.3347 21.8415C19.8332 21.522 21.8505 19.2953 21.4658 16.3204C21.138 13.7844 18.8971 11.7785 16.0245 12.1668Z" fill="white"/>
</svg>
